<svg width="24" height="24" viewBox="0 0 24 24" fill="none" xmlns="http://www.w3.org/2000/svg">
<path d="M12 0C13.8122 0.00104732 15.6006 0.412508 17.231 1.20351C18.8614 1.9945 20.2915 3.14449 21.414 4.56718C22.5364 5.98986 23.3221 7.64829 23.712 9.41802C24.1019 11.1877 24.0859 13.0228 23.6653 14.7855C23.2447 16.5481 22.4303 18.1926 21.2832 19.5956C20.1362 20.9985 18.6863 22.1235 17.0424 22.886C15.3984 23.6485 13.6032 24.0288 11.7912 23.9983C9.97933 23.9678 8.19786 23.5274 6.5805 22.71L6.399 22.6125L0.9315 23.9775C0.826277 24.004 0.716565 24.0073 0.609937 23.9872C0.503308 23.9672 0.402302 23.9242 0.313887 23.8613C0.225473 23.7984 0.151756 23.7171 0.0978237 23.623C0.0438913 23.5288 0.0110272 23.4241 0.00149989 23.316V23.193L0.0225002 23.0685L1.3875 17.6025L1.293 17.4225C0.606576 16.0712 0.184035 14.6015 0.0480001 13.092L0.0105 12.519L0 12C0 8.8174 1.26428 5.76516 3.51472 3.51472C5.76515 1.26428 8.8174 0 12 0ZM12 1.5C10.1677 1.4997 8.36721 1.9789 6.77746 2.88996C5.1877 3.80103 3.86404 5.11224 2.93799 6.69331C2.01195 8.27438 1.51577 10.0703 1.49875 11.9025C1.48173 13.7347 1.94448 15.5395 2.841 17.1375C2.9106 17.2618 2.94338 17.4033 2.9355 17.5455L2.9145 17.6865L1.7805 22.218L6.3165 21.087C6.40871 21.0643 6.5044 21.0592 6.5985 21.072L6.735 21.1035L6.8655 21.162C8.26552 21.9458 9.82653 22.3983 11.4287 22.4847C13.0308 22.5712 14.6315 22.2894 16.1077 21.6609C17.584 21.0324 18.8965 20.0739 19.9446 18.8591C20.9928 17.6443 21.7485 16.2054 22.1539 14.653C22.5593 13.1006 22.6035 11.4759 22.2832 9.90373C21.9629 8.33156 21.2865 6.85371 20.3061 5.58366C19.3256 4.31361 18.0671 3.28514 16.6273 2.57724C15.1874 1.86934 13.6045 1.50082 12 1.5ZM12.75 13.5C12.9374 13.4997 13.1182 13.5695 13.2567 13.6958C13.3952 13.822 13.4814 13.9956 13.4983 14.1822C13.5152 14.3689 13.4617 14.5551 13.3482 14.7042C13.2347 14.8534 13.0694 14.9546 12.885 14.988L12.75 15H8.25C8.06258 15.0003 7.88182 14.9305 7.74332 14.8042C7.60483 14.678 7.51862 14.5044 7.50169 14.3178C7.48475 14.1311 7.53832 13.9449 7.65183 13.7958C7.76534 13.6466 7.93058 13.5454 8.115 13.512L8.25 13.5H12.75ZM15.75 9C15.9374 8.99965 16.1182 9.06949 16.2567 9.19576C16.3952 9.32203 16.4814 9.49558 16.4983 9.68223C16.5152 9.86889 16.4617 10.0551 16.3482 10.2042C16.2347 10.3534 16.0694 10.4546 15.885 10.488L15.75 10.5H8.25C8.06258 10.5003 7.88182 10.4305 7.74332 10.3042C7.60483 10.178 7.51862 10.0044 7.50169 9.81777C7.48475 9.63111 7.53832 9.44489 7.65183 9.29575C7.76534 9.14662 7.93058 9.04539 8.115 9.012L8.25 9H15.75Z" fill="black"/>
</svg>
