<svg width="15" height="18" viewBox="0 0 15 18" fill="none" xmlns="http://www.w3.org/2000/svg">
<g id="Group">
<path id="Vector" fill-rule="evenodd" clip-rule="evenodd" d="M7.5 16.5L8.13112 15.8343C8.84697 15.0683 9.49123 14.3397 10.0639 13.6483L10.5373 13.0648C12.5124 10.576 13.5 8.60172 13.5 7.14198C13.5 4.026 10.8137 1.5 7.5 1.5C4.18629 1.5 1.5 4.026 1.5 7.14198C1.5 8.60172 2.48758 10.576 4.46275 13.0648L4.93608 13.6483C5.67239 14.5372 6.52703 15.4878 7.5 16.5Z" stroke="black" stroke-width="1.5" stroke-linecap="round" stroke-linejoin="round"/>
<path id="Vector_2" d="M7.5 10.25C8.88071 10.25 10 9.13071 10 7.75C10 6.36929 8.88071 5.25 7.5 5.25C6.11929 5.25 5 6.36929 5 7.75C5 9.13071 6.11929 10.25 7.5 10.25Z" stroke="black" stroke-width="1.5" stroke-linecap="round" stroke-linejoin="round"/>
</g>
</svg>
