<svg width="20" height="21" viewBox="0 0 20 21" fill="none" xmlns="http://www.w3.org/2000/svg">
<path d="M9.9974 13.8346C10.8815 13.8346 11.7293 13.4834 12.3544 12.8583C12.9795 12.2332 13.3307 11.3854 13.3307 10.5013C13.3307 9.61725 12.9795 8.7694 12.3544 8.14428C11.7293 7.51916 10.8815 7.16797 9.9974 7.16797C9.11334 7.16797 8.26549 7.51916 7.64037 8.14428C7.01525 8.7694 6.66406 9.61725 6.66406 10.5013C6.66406 11.3854 7.01525 12.2332 7.64037 12.8583C8.26549 13.4834 9.11334 13.8346 9.9974 13.8346Z" stroke="black" stroke-width="1.5" stroke-linecap="round" stroke-linejoin="round"/>
<path d="M2.5 13.8333V7.16667C2.5 6.0616 2.93899 5.00179 3.72039 4.22039C4.50179 3.43899 5.5616 3 6.66667 3H13.3333C14.4384 3 15.4982 3.43899 16.2796 4.22039C17.061 5.00179 17.5 6.0616 17.5 7.16667V13.8333C17.5 14.9384 17.061 15.9982 16.2796 16.7796C15.4982 17.561 14.4384 18 13.3333 18H6.66667C5.5616 18 4.50179 17.561 3.72039 16.7796C2.93899 15.9982 2.5 14.9384 2.5 13.8333Z" stroke="black" stroke-width="1.5"/>
<path d="M14.5859 5.92674L14.5957 5.91602" stroke="black" stroke-width="2" stroke-linecap="round" stroke-linejoin="round"/>
</svg>
