<svg width="19" height="19" viewBox="0 0 19 19" fill="none" xmlns="http://www.w3.org/2000/svg">
<path d="M2.23055 3.97046C2.69534 3.47297 3.42453 2.74122 4.07562 2.09688C4.85591 1.32467 6.11272 1.33971 6.88328 2.12163L8.10748 3.36388C8.68789 3.95284 8.6566 4.88111 8.14934 5.53413C6.99011 7.02649 7.30353 8.03192 9.39114 10.1195C11.4812 12.2096 12.4589 12.4937 13.9497 11.325C14.5984 10.8166 15.5237 10.7888 16.1107 11.3673L17.3808 12.6191C18.1632 13.3902 18.1777 14.648 17.4047 15.4285C16.762 16.0775 16.0322 16.8047 15.5333 17.2732C12.1469 20.4522 -0.940713 7.36484 2.23055 3.97046Z" stroke="black" stroke-width="1.5"/>
</svg>
