<svg width="20" height="21" viewBox="0 0 20 21" fill="none" xmlns="http://www.w3.org/2000/svg">
<path d="M2.5 18.0016L3.875 14.8349C2.82305 13.3416 2.35222 11.5158 2.55087 9.69998C2.74952 7.88421 3.60399 6.20334 4.95392 4.97283C6.30386 3.74231 8.05646 3.04674 9.88282 3.01664C11.7092 2.98655 13.4837 3.624 14.8735 4.80937C16.2632 5.99474 17.1726 7.64654 17.431 9.45478C17.6893 11.263 17.2789 13.1034 16.2768 14.6305C15.2746 16.1577 13.7495 17.2666 11.9878 17.7492C10.2261 18.2317 8.34886 18.0548 6.70833 17.2516L2.5 18.0016Z" stroke="black" stroke-width="1.5" stroke-linecap="round" stroke-linejoin="round"/>
<path d="M7.5 8.83594C7.5 8.94644 7.5439 9.05243 7.62204 9.13057C7.70018 9.20871 7.80616 9.2526 7.91667 9.2526C8.02717 9.2526 8.13315 9.20871 8.21129 9.13057C8.28943 9.05243 8.33333 8.94644 8.33333 8.83594V8.0026C8.33333 7.8921 8.28943 7.78612 8.21129 7.70798C8.13315 7.62984 8.02717 7.58594 7.91667 7.58594C7.80616 7.58594 7.70018 7.62984 7.62204 7.70798C7.5439 7.78612 7.5 7.8921 7.5 8.0026V8.83594ZM7.5 8.83594C7.5 9.94101 7.93899 11.0008 8.72039 11.7822C9.50179 12.5636 10.5616 13.0026 11.6667 13.0026M11.6667 13.0026H12.5C12.6105 13.0026 12.7165 12.9587 12.7946 12.8806C12.8728 12.8024 12.9167 12.6964 12.9167 12.5859C12.9167 12.4754 12.8728 12.3694 12.7946 12.2913C12.7165 12.2132 12.6105 12.1693 12.5 12.1693H11.6667C11.5562 12.1693 11.4502 12.2132 11.372 12.2913C11.2939 12.3694 11.25 12.4754 11.25 12.5859C11.25 12.6964 11.2939 12.8024 11.372 12.8806C11.4502 12.9587 11.5562 13.0026 11.6667 13.0026Z" stroke="black" stroke-width="1.5" stroke-linecap="round" stroke-linejoin="round"/>
</svg>
